<?xml version="1.0" encoding="utf-8"?>
<!-- Generator: Adobe Illustrator 23.0.0, SVG Export Plug-In . SVG Version: 6.00 Build 0)  -->
<svg version="1.1" id="Capa_1" xmlns="http://www.w3.org/2000/svg" xmlns:xlink="http://www.w3.org/1999/xlink" x="0px" y="0px"
	 viewBox="0 0 147.6 119" style="enable-background:new 0 0 147.6 119;" xml:space="preserve">
<style type="text/css">
	.st0{fill:#CB6120;stroke:#CB6120;stroke-width:0.25;stroke-miterlimit:10;}
	.st1{fill:#FFFFFF;stroke:#31A1BF;stroke-width:2;stroke-linecap:round;stroke-linejoin:round;stroke-miterlimit:10;}
	.st2{fill:none;stroke:#31A1BF;stroke-width:2;stroke-linecap:round;stroke-linejoin:round;stroke-miterlimit:10;}
	.st3{fill:none;stroke:#FFFFFF;stroke-width:3;stroke-linecap:round;stroke-linejoin:round;stroke-miterlimit:10;}
	.st4{fill:none;stroke:#A3BD31;stroke-width:1.5;stroke-linecap:round;stroke-linejoin:round;stroke-miterlimit:10;}
</style>
<g>
	<path class="st0" d="M22.1,108c0,0.4-0.2,0.6-0.6,0.6c-0.3,0-0.6-0.3-0.6-0.6v-6.7c0-3.2-1.8-5-4.9-5h-3.5V108
		c0,0.4-0.2,0.6-0.6,0.6c-0.3,0-0.6-0.3-0.6-0.6V82.9c0-0.3,0.3-0.6,0.6-0.6H16c4.2,0,6.1,2.2,6.1,7c0,2.4-0.5,4.1-1.4,5.3
		c-0.4,0.5-0.9,0.9-1.6,1.2c0.5,0.3,0.9,0.5,1.4,1c1.1,1.1,1.7,2.7,1.7,4.7V108z M12.5,83.5v11.6H16c3.4,0,4.8-1.6,4.8-5.8
		c0-4.1-1.4-5.7-4.8-5.7H12.5z"/>
	<path class="st0" d="M26,96.1v11.4h7.6c0.4,0,0.6,0.3,0.6,0.6c0,0.4-0.2,0.6-0.6,0.6h-8.2c-0.4,0-0.6-0.2-0.6-0.6V82.9
		c0-0.3,0.3-0.6,0.6-0.6h8.2c0.4,0,0.6,0.3,0.6,0.6c0,0.4-0.2,0.6-0.6,0.6H26v11.3h7.6c0.4,0,0.6,0.2,0.6,0.6c0,0.3-0.3,0.6-0.6,0.6
		H26z"/>
	<path class="st0" d="M37,89.3c0-2.9,0.7-4.7,1.8-5.7c1.1-1,2.5-1.3,3.8-1.3c1.3,0,2.7,0.3,3.8,1.3c1.1,1,1.8,2.8,1.8,5.7
		c0,0.4-0.2,0.6-0.6,0.6s-0.6-0.2-0.6-0.6c0-3.9-1.4-5.7-4.4-5.7c-2.9,0-4.4,1.8-4.4,5.7v12.4c0,3.9,1.6,5.8,4.4,5.8
		c2.9,0,4.4-1.9,4.4-5.8c0-0.4,0.2-0.6,0.6-0.6s0.6,0.2,0.6,0.6c0,2.9-0.7,4.6-1.8,5.7c-1.1,1.1-2.5,1.3-3.8,1.3
		c-1.3,0-2.7-0.3-3.8-1.3c-1.1-1.1-1.8-2.7-1.8-5.7V89.3z"/>
	<path class="st0" d="M50.7,82.9c0-0.3,0.3-0.6,0.6-0.6s0.6,0.3,0.6,0.6v25.1c0,0.4-0.2,0.6-0.6,0.6s-0.6-0.2-0.6-0.6V82.9z"/>
	<path class="st0" d="M54.5,89.3c0-2.9,0.7-4.7,1.8-5.7c1.1-1,2.5-1.3,3.8-1.3c1.3,0,2.7,0.3,3.8,1.3c1.1,1,1.8,2.8,1.8,5.7
		c0,0.4-0.2,0.6-0.6,0.6s-0.6-0.2-0.6-0.6c0-3.9-1.4-5.7-4.4-5.7c-2.9,0-4.4,1.8-4.4,5.7v12.4c0,3.9,1.6,5.8,4.4,5.8
		c2.9,0,4.4-1.9,4.4-5.8c0-0.4,0.2-0.6,0.6-0.6s0.6,0.2,0.6,0.6c0,2.9-0.7,4.6-1.8,5.7c-1.1,1.1-2.5,1.3-3.8,1.3
		c-1.3,0-2.7-0.3-3.8-1.3c-1.1-1.1-1.8-2.7-1.8-5.7V89.3z"/>
	<path class="st0" d="M68.4,108.7c-0.4,0-0.6-0.2-0.6-0.6V82.9c0-0.3,0.3-0.6,0.6-0.6c0.3,0,0.6,0.3,0.6,0.6v24.6h8.3
		c0.4,0,0.6,0.3,0.6,0.6c0,0.4-0.2,0.6-0.6,0.6H68.4z"/>
	<path class="st0" d="M92.5,108c0.1,0.3-0.2,0.6-0.5,0.7h-0.2c-0.3,0-0.5-0.2-0.6-0.5l-1.8-7.6h-6.9l-1.8,7.6
		c-0.1,0.3-0.4,0.6-0.7,0.5c-0.4-0.1-0.6-0.4-0.5-0.7l5.8-25.1c0.1-0.3,0.3-0.5,0.6-0.5c0.4,0,0.5,0.2,0.6,0.5L92.5,108z M86.1,85.7
		l-3.2,13.8h6.4L86.1,85.7z"/>
	<path class="st0" d="M105.6,108.7c-0.3,0-0.5-0.1-0.5-0.4l-9-22.2v21.9c0,0.4-0.2,0.6-0.6,0.6s-0.6-0.2-0.6-0.6V82.9
		c0-0.7,0.9-0.8,1.2-0.2l8.9,22.2v-22c0-0.3,0.3-0.6,0.6-0.6s0.6,0.3,0.6,0.6v25.1c0,0.4-0.2,0.5-0.5,0.6H105.6z"/>
	<path class="st0" d="M109.6,108.7c-0.4,0-0.6-0.2-0.6-0.6V82.9c0-0.3,0.3-0.6,0.6-0.6h3.9c4.2,0,6.1,2.4,6.1,7.1v12.1
		c0,4.7-1.9,7.1-6.1,7.1H109.6z M110.2,83.6v23.9h3.3c3.4,0,4.8-1.8,4.8-5.9V89.5c0-4.1-1.4-5.9-4.8-5.9H110.2z"/>
	<path class="st0" d="M122.5,89.3c0-4.5,1.9-7,5.6-7c3.8,0,5.6,2.4,5.6,7v12.4c0,2.9-0.7,4.6-1.8,5.7c-1.1,1.1-2.5,1.3-3.8,1.3
		c-1.3,0-2.7-0.3-3.8-1.3c-1.1-1.1-1.8-2.7-1.8-5.7V89.3z M123.8,101.7c0,3.9,1.4,5.8,4.4,5.8c2.9,0,4.4-1.7,4.4-5.8V89.3
		c0-4-1.4-5.7-4.4-5.7c-3,0-4.4,1.8-4.4,5.7V101.7z"/>
</g>
<g>
	<g>
		<path class="st1" d="M89.5,76.3H56.5c-4.4,0-8-3.6-8-8l-2-28.6l-0.6-7l54.2,0l-0.6,7l-2,28.6C97.5,72.7,93.9,76.3,89.5,76.3z"/>
		<line class="st2" x1="68.6" y1="65.3" x2="102.1" y2="65.3"/>
		<path class="st2" d="M40.1,36.7c0,0,22.9-21.9,32.9-21.9s32,21.9,32,21.9"/>
		<path class="st1" d="M73.1,9.4c-2.5,0-4.5,2-4.5,4.5v51.4h8.9V13.9C77.5,11.4,75.5,9.4,73.1,9.4z"/>
	</g>
	<g>
		<g>
			<path class="st3" d="M78.8,49.8l2.4,4.1c0,0,0.7,1.1,0.2,2c-0.4,0.7-1.5,0.7-1.5,0.7h-6.4"/>
			<polyline class="st3" points="74.9,54.8 73.1,56.6 74.9,58.5 			"/>
		</g>
		<g>
			<path class="st3" d="M69.3,46.5l2.4-4.1c0,0,0.7-1.1,1.6-1.1c0.8,0,1.3,1,1.3,1l3.1,5.6"/>
			<polyline class="st3" points="75.5,47.5 77.9,48.3 78.7,45.7 			"/>
		</g>
		<g>
			<path class="st3" d="M71.2,56.6l-4.7,0c0,0-1.3,0-1.8-0.8c-0.4-0.7,0.2-1.6,0.2-1.6l3.3-5.5"/>
			<polyline class="st3" points="68.9,50.8 68.4,48.3 65.8,48.9 			"/>
		</g>
	</g>
	<g>
		<g>
			<path class="st4" d="M78.8,49.8l2.4,4.1c0,0,0.7,1.1,0.2,2c-0.4,0.7-1.5,0.7-1.5,0.7h-6.4"/>
			<polyline class="st4" points="74.9,54.8 73.1,56.6 74.9,58.5 			"/>
		</g>
		<g>
			<path class="st4" d="M69.3,46.5l2.4-4.1c0,0,0.7-1.1,1.6-1.1c0.8,0,1.3,1,1.3,1l3.1,5.6"/>
			<polyline class="st4" points="75.5,47.5 77.9,48.3 78.7,45.7 			"/>
		</g>
		<g>
			<path class="st4" d="M71.2,56.6l-4.7,0c0,0-1.3,0-1.8-0.8c-0.4-0.7,0.2-1.6,0.2-1.6l3.3-5.5"/>
			<polyline class="st4" points="68.9,50.8 68.4,48.3 65.8,48.9 			"/>
		</g>
	</g>
</g>
</svg>
