<?xml version="1.0" encoding="utf-8"?>
<!-- Generator: Adobe Illustrator 23.0.0, SVG Export Plug-In . SVG Version: 6.00 Build 0)  -->
<svg version="1.1" id="Capa_1" xmlns="http://www.w3.org/2000/svg" xmlns:xlink="http://www.w3.org/1999/xlink" x="0px" y="0px"
	 viewBox="0 0 102.7 98.2" style="enable-background:new 0 0 102.7 98.2;" xml:space="preserve">
<style type="text/css">
	.st0{fill:#31A1BF;}
	.st1{fill:#FFFFFF;}
	.st2{fill:#A3BD31;}
	.st3{fill:#CB6120;}
</style>
<g>
	<path class="st0" d="M78.3,29.3c-0.7,10.1-1.4,20-2.1,30c0.9,0,1.7,0,2.6,0c0.3,0,0.5,0,0.8,0c0.6,0,1,0.5,0.9,1c0,0.6-0.4,1-1,1
		c-1.1,0-2.3,0-3.4,0c-0.1,1.2-0.1,2.3-0.3,3.4c-0.5,3.9-3.9,7.2-7.9,7.6c-0.5,0.1-1.1,0.1-1.6,0.1c-10.8,0-21.6,0-32.3,0
		c-4.6,0-8.4-3.3-9-7.8c-0.2-1.9-0.3-3.8-0.4-5.7c-0.2-3.2-0.5-6.3-0.7-9.5c-0.2-2.6-0.3-5.1-0.5-7.7c-0.2-3-0.5-6.1-0.7-9.1
		c-0.1-1.3-0.2-2.5-0.3-3.9c-0.2,0.1-0.3,0.2-0.4,0.3c-1.2,1.1-2.4,2.2-3.6,3.3c-0.4,0.4-0.8,0.5-1.3,0.2c-0.4-0.2-0.6-0.7-0.5-1.1
		c0.1-0.2,0.2-0.4,0.3-0.5c7.1-6.5,14.3-12.8,22.6-17.9c1.6-1,3.3-1.8,5-2.7C44.8,10.2,45,10,45,9.5c-0.1-1.6,0.3-3.1,1.4-4.3
		C48,3.5,50.2,3,52.3,3.7c2.1,0.8,3.6,2.7,3.5,5.1c0,1.1,0.4,1.6,1.4,2c3.7,1.8,7,4.1,10.3,6.6C72.9,21.5,78,26,82.9,30.8
		c0.2,0.2,0.4,0.4,0.5,0.7c0.1,0.5,0,0.9-0.4,1.1c-0.5,0.3-0.9,0.2-1.3-0.2c-1-0.9-1.9-1.8-2.9-2.7C78.7,29.6,78.6,29.5,78.3,29.3z
		 M24.4,28.7c0,0.5,0,0.9,0.1,1.3c0.3,3.4,0.5,6.8,0.8,10.2c0.2,3.1,0.4,6.3,0.6,9.4c0.3,4.6,0.7,9.2,0.9,13.8c0.2,4.1,3.2,7,7.3,7
		c10.9,0,21.7,0,32.6,0c5.1,0,7.7-4.2,7.2-9c-0.3,0-0.6,0-0.9,0c-8.9,0-17.8,0-26.8,0c-0.9,0-1.3-0.4-1.3-1.2c0-1.9,0-3.8,0-5.7
		c0-0.4,0-0.8,0-1.3c0.7,0,1.3,0,2,0c0,2,0,4.1,0,6.1c2.3,0,4.6,0,6.9,0c0-2,0-4.1,0-6.1c0.7,0,1.3,0,2,0c0,2,0,4.1,0,6.1
		c6.1,0,12.2,0,18.3,0c0.7-10.2,1.5-20.3,2.2-30.5c-6.8,0-13.6,0-20.5,0c0,3.5,0,7,0,10.4c-0.3,0.2-0.6,0.3-0.9,0.4
		c-0.8-1.1-1.2-2.2-1.1-3.5c0.1-2.7,0-5.4,0-8c0-6.3,0-12.6,0-18.8c0-2.1-1.4-3.7-3.3-3.8C48.6,5.3,47,6.9,47,9.1
		c0,9.5,0,18.9,0,28.4c0,0.3,0,0.6-0.1,0.8c-0.6,1.2-1.6,2.2-1.9,3.6c0-4.4,0-8.7,0-13.1C38.1,28.7,31.3,28.7,24.4,28.7z M45,12.3
		c-7.5,3.7-13.9,9-20.3,14.3c6.9,0,13.6,0,20.3,0C45,21.9,45,17.2,45,12.3z M75.3,26.7c-6-5.4-12.1-10.5-19.4-14.3
		c0,4.8,0,9.5,0,14.3C62.4,26.7,68.9,26.7,75.3,26.7z"/>
	<path class="st1" d="M53.7,41.9c-0.2,0-0.3,0-0.4-0.1c-0.5-0.2-0.9,0-1,0.5c-0.1,0.5,0.1,0.8,0.6,0.9c0.7,0.2,1.5,0.5,2.2,0.7
		c0.4,0.1,0.8,0,1-0.4c0.3-0.9,0.6-1.8,0.8-2.7c0.1-0.4-0.1-0.8-0.5-0.9c-0.4-0.1-0.7,0.1-0.9,0.4c-0.1,0.3-0.2,0.5-0.3,0.9
		c-0.6-1.2-1.2-2.2-1.8-3.3c-0.3-0.6-0.6-1.2-1.1-1.7c-0.8-0.9-1.8-1-2.8-0.3c-0.3,0.2-0.7,0.6-0.9,0.9c-0.8,1.4-1.6,2.7-2.4,4.1
		c-0.2,0.4-0.2,0.8,0.2,1.1c0.4,0.3,0.8,0.1,1-0.3c0.1-0.1,0.1-0.2,0.2-0.4c0.6-1.1,1.2-2.1,1.8-3.2c0.2-0.3,0.3-0.6,0.5-0.8
		c0.6-0.7,0.9-0.6,1.4,0.1c0.3,0.5,0.6,1.1,0.9,1.7C52.7,40.2,53.2,41,53.7,41.9z M52.3,52.4c0.3,0,0.5,0,0.7,0c1.5,0,3,0,4.4,0
		c1.7,0,2.6-1.3,2.2-2.9c-0.1-0.3-0.2-0.6-0.3-0.8c-0.8-1.3-1.5-2.7-2.3-4c-0.3-0.5-0.7-0.7-1.1-0.4c-0.5,0.3-0.4,0.7-0.2,1.2
		c0.4,0.7,0.8,1.3,1.1,2c0.4,0.7,0.9,1.5,1.3,2.2c0.4,0.8,0.2,1.3-0.6,1.3c-1.7,0.1-3.3,0-5.1,0c0.2-0.2,0.3-0.4,0.4-0.5
		c0.3-0.4,0.3-0.7,0-1.1c-0.3-0.3-0.7-0.3-1.1,0c-0.6,0.6-1.2,1.1-1.7,1.8c-0.2,0.2-0.3,0.7-0.1,0.9c0.6,0.7,1.3,1.4,2,2.1
		c0.3,0.3,0.7,0.3,1-0.1c0.1-0.2,0.2-0.6,0.1-0.9C52.8,52.9,52.5,52.7,52.3,52.4z M45.4,45.5c0.1,0.1,0.1,0.2,0.1,0.2
		c0.1,0.5,0.3,0.9,0.9,0.8c0.5-0.1,0.7-0.5,0.5-1.1c-0.1-0.7-0.3-1.4-0.4-2.1c-0.1-0.6-0.4-0.8-1-0.7c-0.8,0.2-1.7,0.4-2.5,0.6
		c-0.5,0.1-0.7,0.4-0.6,0.9c0.1,0.5,0.5,0.6,0.9,0.5c0.3,0,0.5-0.1,0.8-0.2c-0.1,0.2-0.2,0.4-0.3,0.6c-0.8,1.3-1.6,2.7-2.4,4
		c-0.8,1.4-0.2,2.8,1.4,3.2c0.3,0.1,0.6,0.1,0.9,0.1c1.5,0,3,0,4.4,0c0.7,0,0.9-0.2,0.9-0.7c0-0.5-0.3-0.7-0.9-0.7
		c-1.4,0-2.8,0-4.2,0c-0.3,0-0.6,0-0.8-0.1c-0.7-0.2-0.8-0.5-0.5-1C43.7,48.3,44.5,47,45.4,45.5z M55.9,50.1c0-0.7,0-1.3,0-1.9
		c0-0.6-0.1-1.1-0.4-1.6c-0.3-0.5-0.6-0.9-0.7-1.4c-0.1-0.5-0.4-0.6-0.8-0.6c0,1.9,0,3.7,0,5.5C54.6,50.1,55.2,50.1,55.9,50.1z
		 M45.3,47.2C44.7,48,45.1,49.1,45,50c0.7,0,1.3,0,2,0c0-1,0-1.9,0-2.7C46.4,47.3,45.9,47.2,45.3,47.2z"/>
	<path class="st2" d="M53.7,41.9c-0.5-0.9-1-1.7-1.4-2.6c-0.3-0.6-0.6-1.1-0.9-1.7c-0.4-0.7-0.8-0.8-1.4-0.1
		c-0.2,0.2-0.4,0.5-0.5,0.8c-0.6,1-1.2,2.1-1.8,3.2c-0.1,0.1-0.1,0.2-0.2,0.4c-0.3,0.4-0.6,0.6-1,0.3c-0.4-0.3-0.5-0.7-0.2-1.1
		c0.8-1.4,1.6-2.8,2.4-4.1c0.2-0.3,0.5-0.6,0.9-0.9c0.9-0.7,2-0.6,2.8,0.3c0.4,0.5,0.7,1.1,1.1,1.7c0.6,1.1,1.2,2.2,1.8,3.3
		c0.1-0.4,0.2-0.7,0.3-0.9c0.2-0.4,0.5-0.6,0.9-0.4c0.4,0.1,0.6,0.5,0.5,0.9c-0.2,0.9-0.5,1.8-0.8,2.7c-0.2,0.4-0.5,0.6-1,0.4
		c-0.7-0.2-1.5-0.5-2.2-0.7c-0.5-0.1-0.7-0.4-0.6-0.9c0.2-0.5,0.5-0.6,1-0.5C53.4,41.9,53.5,41.9,53.7,41.9z"/>
	<path class="st2" d="M52.3,52.4c0.3,0.3,0.6,0.5,0.6,0.8c0.1,0.3,0.1,0.7-0.1,0.9c-0.2,0.3-0.7,0.4-1,0.1c-0.7-0.7-1.4-1.4-2-2.1
		c-0.1-0.2,0-0.7,0.1-0.9c0.5-0.6,1.1-1.2,1.7-1.8c0.3-0.3,0.7-0.4,1.1,0c0.3,0.3,0.3,0.7,0,1.1c-0.1,0.1-0.3,0.3-0.4,0.5
		c1.8,0,3.4,0,5.1,0c0.8,0,1-0.5,0.6-1.3c-0.4-0.8-0.8-1.5-1.3-2.2c-0.4-0.7-0.8-1.3-1.1-2c-0.2-0.4-0.3-0.8,0.2-1.2
		c0.4-0.3,0.8-0.1,1.1,0.4c0.8,1.3,1.6,2.7,2.3,4c0.1,0.3,0.3,0.5,0.3,0.8c0.4,1.7-0.5,2.9-2.2,2.9c-1.5,0-3,0-4.4,0
		C52.8,52.4,52.6,52.4,52.3,52.4z"/>
	<path class="st2" d="M45.4,45.5c-0.9,1.5-1.7,2.8-2.5,4.2c-0.3,0.6-0.2,0.9,0.5,1c0.3,0.1,0.5,0.1,0.8,0.1c1.4,0,2.8,0,4.2,0
		c0.7,0,0.9,0.2,0.9,0.7c0,0.5-0.3,0.7-0.9,0.7c-1.5,0-3,0-4.4,0c-0.3,0-0.6,0-0.9-0.1c-1.6-0.4-2.2-1.7-1.4-3.2
		c0.8-1.4,1.6-2.7,2.4-4c0.1-0.2,0.2-0.3,0.3-0.6c-0.3,0.1-0.6,0.1-0.8,0.2c-0.5,0.1-0.8-0.1-0.9-0.5c-0.1-0.5,0.1-0.8,0.6-0.9
		c0.8-0.2,1.7-0.4,2.5-0.6c0.6-0.1,0.8,0.1,1,0.7c0.2,0.7,0.3,1.4,0.4,2.1c0.1,0.6-0.1,1.1-0.5,1.1c-0.6,0.1-0.8-0.3-0.9-0.8
		C45.5,45.7,45.5,45.6,45.4,45.5z"/>
	<path class="st0" d="M55.9,50.1c-0.7,0-1.3,0-1.9,0c0-1.8,0-3.6,0-5.5c0.4,0,0.6,0.1,0.8,0.6c0.1,0.5,0.4,1,0.7,1.4
		c0.3,0.5,0.5,1,0.4,1.6C55.9,48.8,55.9,49.4,55.9,50.1z"/>
	<path class="st0" d="M45.3,47.2c0.6,0.1,1.2,0.1,1.7,0.1c0,0.8,0,1.8,0,2.7c-0.6,0-1.3,0-2,0C45.1,49.1,44.7,48,45.3,47.2z"/>
</g>
<g>
	<path class="st3" d="M7.3,87.5v5.3H4.8V79.6h4.3c1.3,0,2.3,0.3,3.1,1s1.1,1.6,1.1,2.9c0,0.7-0.2,1.3-0.5,1.8
		c-0.3,0.5-0.8,0.9-1.4,1.2c0.7,0.2,1.2,0.6,1.5,1.1s0.5,1.2,0.5,2v0.9c0,0.4,0,0.8,0.1,1.2s0.2,0.7,0.4,0.9v0.2h-2.7
		c-0.2-0.2-0.3-0.5-0.4-0.9s-0.1-0.9-0.1-1.3v-0.9c0-0.7-0.1-1.2-0.4-1.5s-0.7-0.5-1.2-0.5H7.3z M7.3,85.5h1.7
		c0.5,0,0.9-0.2,1.2-0.5c0.3-0.3,0.4-0.8,0.4-1.4c0-0.6-0.1-1.1-0.4-1.4c-0.3-0.4-0.7-0.5-1.2-0.5H7.3V85.5z"/>
	<path class="st3" d="M22.3,87h-4.4v3.7h5.2v2.1h-7.8V79.6h7.8v2.1h-5.2v3.3h4.4V87z"/>
	<path class="st3" d="M32.8,88.5L32.8,88.5c0,1.5-0.3,2.6-1,3.3C31,92.6,30,93,28.6,93s-2.5-0.4-3.3-1.3c-0.8-0.8-1.2-2-1.2-3.6v-4
		c0-1.5,0.4-2.7,1.2-3.6c0.8-0.8,1.8-1.3,3.2-1.3c1.4,0,2.5,0.4,3.2,1.1c0.7,0.8,1.1,1.9,1.1,3.3l0,0.1h-2.5c0-0.9-0.1-1.5-0.4-1.9
		c-0.3-0.4-0.7-0.6-1.4-0.6c-0.6,0-1,0.2-1.3,0.7c-0.3,0.5-0.5,1.1-0.5,2.1v4c0,0.9,0.2,1.6,0.5,2.1c0.3,0.5,0.8,0.7,1.4,0.7
		c0.6,0,1.1-0.2,1.3-0.5c0.2-0.4,0.4-1,0.3-1.8H32.8z"/>
	<path class="st3" d="M37.1,92.8h-2.6V79.6h2.6V92.8z"/>
	<path class="st3" d="M47.5,88.5L47.5,88.5c0,1.5-0.3,2.6-1,3.3c-0.7,0.7-1.7,1.1-3.1,1.1s-2.5-0.4-3.3-1.3c-0.8-0.8-1.2-2-1.2-3.6
		v-4c0-1.5,0.4-2.7,1.2-3.6c0.8-0.8,1.8-1.3,3.2-1.3c1.4,0,2.5,0.4,3.2,1.1c0.7,0.8,1.1,1.9,1.1,3.3l0,0.1H45c0-0.9-0.1-1.5-0.4-1.9
		c-0.3-0.4-0.7-0.6-1.4-0.6c-0.6,0-1,0.2-1.3,0.7c-0.3,0.5-0.5,1.1-0.5,2.1v4c0,0.9,0.2,1.6,0.5,2.1c0.3,0.5,0.8,0.7,1.4,0.7
		c0.6,0,1.1-0.2,1.3-0.5c0.2-0.4,0.4-1,0.3-1.8H47.5z"/>
	<path class="st3" d="M51.7,90.7h4.8v2.1h-7.4V79.6h2.6V90.7z"/>
	<path class="st3" d="M63.9,90h-3.5l-0.7,2.8h-2.6l3.7-13.2h2.7l3.7,13.2h-2.6L63.9,90z M61,87.9h2.4l-1.2-4.7h-0.1L61,87.9z"/>
	<path class="st3" d="M77.5,92.8H75l-4-8.5l-0.1,0v8.4h-2.6V79.6h2.6l4,8.5l0.1,0v-8.4h2.6V92.8z"/>
	<path class="st3" d="M79.6,92.8V79.6h4c1.4,0,2.5,0.5,3.4,1.5c0.9,1,1.3,2.3,1.3,4v2.2c0,1.6-0.4,2.9-1.3,4c-0.9,1-2,1.5-3.4,1.5
		H79.6z M82.2,81.6v9.1h1.3c0.7,0,1.3-0.3,1.7-0.9c0.4-0.6,0.6-1.5,0.6-2.5v-2.2c0-1-0.2-1.9-0.6-2.5s-0.9-0.9-1.7-0.9H82.2z"/>
	<path class="st3" d="M98.9,88.1c0,1.6-0.4,2.8-1.3,3.6c-0.8,0.9-2,1.3-3.4,1.3s-2.5-0.4-3.4-1.3c-0.8-0.9-1.3-2.1-1.3-3.6v-3.7
		c0-1.5,0.4-2.8,1.3-3.6c0.8-0.9,2-1.3,3.3-1.3s2.5,0.4,3.4,1.3c0.8,0.9,1.3,2.1,1.3,3.6V88.1z M96.4,84.3c0-0.9-0.2-1.7-0.5-2.1
		c-0.4-0.5-0.9-0.7-1.5-0.7c-0.7,0-1.2,0.2-1.5,0.7c-0.3,0.5-0.5,1.2-0.5,2.2v3.7c0,1,0.2,1.7,0.5,2.2c0.3,0.5,0.9,0.7,1.5,0.7
		c0.7,0,1.2-0.2,1.5-0.7c0.4-0.5,0.5-1.2,0.5-2.2V84.3z"/>
</g>
</svg>
